<svg width="26" height="30" viewBox="0 0 26 30" fill="none" xmlns="http://www.w3.org/2000/svg">
<path fill-rule="evenodd" clip-rule="evenodd" d="M0.399994 1.93333C0.399994 1.16013 1.0268 0.533325 1.79999 0.533325H24.2C24.9732 0.533325 25.6 1.16013 25.6 1.93333V28.0667C25.6 28.5519 25.3488 29.0025 24.936 29.2576C24.5233 29.5127 24.0079 29.5359 23.5739 29.3189L20.4667 27.7652L17.3594 29.3189C16.9653 29.5159 16.5014 29.5159 16.1072 29.3189L13 27.7652L9.89276 29.3189C9.49862 29.5159 9.0347 29.5159 8.64056 29.3189L5.53333 27.7652L2.42609 29.3189C1.99211 29.5359 1.47671 29.5127 1.06397 29.2576C0.651227 29.0025 0.399994 28.5519 0.399994 28.0667V1.93333ZM3.19999 3.33333V25.8014L4.90723 24.9478C5.30137 24.7507 5.76529 24.7507 6.15943 24.9478L9.26666 26.5014L12.3739 24.9478C12.768 24.7507 13.232 24.7507 13.6261 24.9478L16.7333 26.5014L19.8406 24.9478C20.2347 24.7507 20.6986 24.7507 21.0928 24.9478L22.8 25.8014V3.33333H3.19999ZM10.2 10.8H6.46666V7.99999H10.2V10.8ZM19.5333 10.8H13.9333V7.99999H19.5333V10.8ZM10.2 16.4H6.46666V13.6H10.2V16.4ZM19.5333 16.4H13.9333V13.6H19.5333V16.4ZM19.5333 22H13.9333V19.2H19.5333V22Z" fill="#24373D"/>
</svg>
